<svg width="238" height="45" viewBox="0 0 238 45" fill="none" xmlns="http://www.w3.org/2000/svg">
<path d="M15.6666 20L23.6166 6.23335C21.1584 5.68386 18.6074 5.69987 16.1562 6.28019C13.705 6.86051 11.4176 7.98997 9.46664 9.58335L15.5666 20.1667L15.6666 20ZM35.9 17.5C34.3666 12.6334 30.65 8.73335 25.9 6.93335L19.8 17.5H35.9ZM36.3333 19.1667H23.85L24.3333 20L32.2666 33.75C35.1026 30.691 36.6748 26.6714 36.6666 22.5C36.6666 21.35 36.55 20.25 36.3333 19.1667ZM14.2333 22.5L7.73331 11.25C5.94771 13.1843 4.64772 15.5154 3.94063 18.0511C3.23354 20.5868 3.13963 23.2542 3.66664 25.8334H16.15L14.2333 22.5ZM4.09998 27.5C5.63331 32.3667 9.34998 36.2667 14.1 38.0667L20.2 27.5H4.09998ZM22.8833 27.5L16.3833 38.7667C18.8416 39.3162 21.3926 39.3002 23.8438 38.7198C26.295 38.1395 28.5823 37.0101 30.5333 35.4167L24.4333 24.8334L22.8833 27.5Z" fill="white"/>
<path d="M59.408 37.432C57.512 37.432 55.772 37.096 54.188 36.424C52.604 35.728 51.224 34.768 50.048 33.544C48.896 32.296 47.996 30.832 47.348 29.152C46.7 27.472 46.376 25.624 46.376 23.608C46.376 21.592 46.7 19.744 47.348 18.064C47.996 16.384 48.896 14.92 50.048 13.672C51.224 12.424 52.604 11.464 54.188 10.792C55.772 10.096 57.512 9.748 59.408 9.748C61.232 9.748 62.864 10.072 64.304 10.72C65.768 11.368 66.992 12.208 67.976 13.24C68.984 14.248 69.704 15.316 70.136 16.444L67.436 17.632C66.764 16.072 65.732 14.824 64.34 13.888C62.972 12.928 61.328 12.448 59.408 12.448C57.44 12.448 55.688 12.916 54.152 13.852C52.616 14.788 51.416 16.096 50.552 17.776C49.688 19.432 49.256 21.376 49.256 23.608C49.256 25.816 49.688 27.76 50.552 29.44C51.416 31.12 52.616 32.428 54.152 33.364C55.688 34.276 57.44 34.732 59.408 34.732C61.328 34.732 62.972 34.264 64.34 33.328C65.732 32.392 66.764 31.144 67.436 29.584L70.136 30.772C69.704 31.876 68.984 32.944 67.976 33.976C66.992 34.984 65.768 35.812 64.304 36.46C62.864 37.108 61.232 37.432 59.408 37.432ZM74.897 37V17.704H77.597V37H74.897ZM74.897 14.14V10.18H77.597V14.14H74.897ZM83.1236 37V17.704H85.8236V21.448L85.2116 21.304C85.6916 20.056 86.4716 19.072 87.5516 18.352C88.6556 17.632 89.9276 17.272 91.3676 17.272C92.7356 17.272 93.9596 17.584 95.0396 18.208C96.1436 18.832 97.0076 19.696 97.6316 20.8C98.2796 21.88 98.6036 23.104 98.6036 24.472V37H95.9036V25.516C95.9036 24.34 95.6876 23.344 95.2556 22.528C94.8476 21.712 94.2596 21.088 93.4916 20.656C92.7476 20.2 91.8836 19.972 90.8996 19.972C89.9156 19.972 89.0396 20.2 88.2716 20.656C87.5036 21.088 86.9036 21.724 86.4716 22.564C86.0396 23.38 85.8236 24.364 85.8236 25.516V37H83.1236ZM112.544 37.432C110.744 37.432 109.112 37 107.648 36.136C106.208 35.248 105.068 34.036 104.228 32.5C103.388 30.964 102.968 29.224 102.968 27.28C102.968 25.336 103.376 23.62 104.192 22.132C105.008 20.62 106.112 19.432 107.504 18.568C108.92 17.704 110.504 17.272 112.256 17.272C113.648 17.272 114.884 17.536 115.964 18.064C117.068 18.568 118.004 19.264 118.772 20.152C119.54 21.016 120.128 22 120.536 23.104C120.944 24.184 121.148 25.3 121.148 26.452C121.148 26.692 121.136 26.968 121.112 27.28C121.088 27.568 121.052 27.868 121.004 28.18H104.696V25.66H119.456L118.16 26.74C118.376 25.42 118.22 24.244 117.692 23.212C117.188 22.156 116.456 21.328 115.496 20.728C114.536 20.104 113.456 19.792 112.256 19.792C111.056 19.792 109.94 20.104 108.908 20.728C107.9 21.352 107.108 22.228 106.532 23.356C105.956 24.46 105.728 25.78 105.848 27.316C105.728 28.852 105.968 30.196 106.568 31.348C107.192 32.476 108.032 33.352 109.088 33.976C110.168 34.6 111.32 34.912 112.544 34.912C113.96 34.912 115.148 34.576 116.108 33.904C117.068 33.232 117.848 32.392 118.448 31.384L120.752 32.608C120.368 33.472 119.78 34.276 118.988 35.02C118.196 35.74 117.248 36.328 116.144 36.784C115.064 37.216 113.864 37.432 112.544 37.432ZM135.341 37.432C133.637 37.432 132.089 37.108 130.697 36.46C129.305 35.812 128.129 34.948 127.169 33.868C126.209 32.764 125.525 31.552 125.117 30.232L127.709 29.26C128.333 31.084 129.305 32.476 130.625 33.436C131.945 34.372 133.517 34.84 135.341 34.84C136.493 34.84 137.501 34.66 138.365 34.3C139.253 33.916 139.937 33.388 140.417 32.716C140.897 32.044 141.137 31.264 141.137 30.376C141.137 29.056 140.777 28.036 140.057 27.316C139.337 26.596 138.305 26.044 136.961 25.66L132.137 24.22C130.241 23.668 128.777 22.744 127.745 21.448C126.737 20.152 126.233 18.676 126.233 17.02C126.233 15.604 126.581 14.356 127.277 13.276C127.973 12.172 128.921 11.308 130.121 10.684C131.345 10.06 132.725 9.748 134.261 9.748C135.869 9.748 137.309 10.048 138.581 10.648C139.877 11.224 140.969 11.992 141.857 12.952C142.745 13.912 143.381 14.98 143.765 16.156L141.245 17.164C140.669 15.58 139.769 14.38 138.545 13.564C137.345 12.748 135.929 12.34 134.297 12.34C133.265 12.34 132.353 12.52 131.561 12.88C130.793 13.24 130.193 13.756 129.761 14.428C129.329 15.1 129.113 15.892 129.113 16.804C129.113 17.908 129.461 18.904 130.157 19.792C130.853 20.656 131.921 21.304 133.361 21.736L137.609 22.996C139.721 23.62 141.317 24.52 142.397 25.696C143.477 26.872 144.017 28.348 144.017 30.124C144.017 31.564 143.645 32.836 142.901 33.94C142.181 35.02 141.161 35.872 139.841 36.496C138.545 37.12 137.045 37.432 135.341 37.432ZM158.002 37.432C156.106 37.432 154.438 36.988 152.998 36.1C151.558 35.212 150.43 34.012 149.614 32.5C148.798 30.964 148.39 29.236 148.39 27.316C148.39 25.396 148.798 23.68 149.614 22.168C150.43 20.656 151.558 19.468 152.998 18.604C154.438 17.716 156.106 17.272 158.002 17.272C159.202 17.272 160.33 17.488 161.386 17.92C162.442 18.352 163.378 18.94 164.194 19.684C165.01 20.404 165.622 21.244 166.03 22.204L163.582 23.464C163.102 22.432 162.37 21.592 161.386 20.944C160.402 20.296 159.274 19.972 158.002 19.972C156.73 19.972 155.578 20.296 154.546 20.944C153.538 21.568 152.734 22.444 152.134 23.572C151.558 24.676 151.27 25.936 151.27 27.352C151.27 28.744 151.558 30.004 152.134 31.132C152.734 32.236 153.538 33.112 154.546 33.76C155.578 34.408 156.73 34.732 158.002 34.732C159.274 34.732 160.39 34.408 161.35 33.76C162.334 33.112 163.078 32.248 163.582 31.168L166.03 32.5C165.622 33.436 165.01 34.276 164.194 35.02C163.378 35.764 162.442 36.352 161.386 36.784C160.33 37.216 159.202 37.432 158.002 37.432ZM179.804 37.432C177.98 37.432 176.324 37 174.836 36.136C173.348 35.248 172.16 34.048 171.272 32.536C170.408 31 169.976 29.26 169.976 27.316C169.976 25.396 170.408 23.68 171.272 22.168C172.136 20.656 173.3 19.468 174.764 18.604C176.252 17.716 177.932 17.272 179.804 17.272C181.676 17.272 183.344 17.704 184.808 18.568C186.296 19.432 187.46 20.62 188.3 22.132C189.164 23.644 189.596 25.372 189.596 27.316C189.596 29.284 189.152 31.036 188.264 32.572C187.376 34.084 186.188 35.272 184.7 36.136C183.236 37 181.604 37.432 179.804 37.432ZM179.804 34.732C181.1 34.732 182.264 34.408 183.296 33.76C184.352 33.112 185.18 32.224 185.78 31.096C186.404 29.968 186.716 28.708 186.716 27.316C186.716 25.924 186.404 24.676 185.78 23.572C185.18 22.468 184.352 21.592 183.296 20.944C182.264 20.296 181.1 19.972 179.804 19.972C178.508 19.972 177.332 20.296 176.276 20.944C175.244 21.592 174.416 22.468 173.792 23.572C173.168 24.676 172.856 25.924 172.856 27.316C172.856 28.708 173.168 29.968 173.792 31.096C174.416 32.224 175.244 33.112 176.276 33.76C177.332 34.408 178.508 34.732 179.804 34.732ZM194.358 44.2V17.704H197.058V22.024L196.626 21.268C197.394 20.044 198.414 19.072 199.686 18.352C200.982 17.632 202.458 17.272 204.114 17.272C205.938 17.272 207.558 17.716 208.974 18.604C210.414 19.468 211.542 20.656 212.358 22.168C213.198 23.68 213.618 25.408 213.618 27.352C213.618 29.272 213.198 31 212.358 32.536C211.542 34.048 210.414 35.248 208.974 36.136C207.558 37 205.938 37.432 204.114 37.432C202.458 37.432 200.958 37.06 199.614 36.316C198.294 35.548 197.298 34.468 196.626 33.076L197.058 32.68V44.2H194.358ZM203.97 34.732C205.266 34.732 206.418 34.408 207.426 33.76C208.458 33.112 209.262 32.236 209.838 31.132C210.438 30.004 210.738 28.744 210.738 27.352C210.738 25.936 210.438 24.676 209.838 23.572C209.262 22.468 208.458 21.592 207.426 20.944C206.418 20.296 205.266 19.972 203.97 19.972C202.674 19.972 201.498 20.296 200.442 20.944C199.41 21.592 198.582 22.48 197.958 23.608C197.358 24.712 197.058 25.96 197.058 27.352C197.058 28.744 197.358 30.004 197.958 31.132C198.582 32.236 199.41 33.112 200.442 33.76C201.498 34.408 202.674 34.732 203.97 34.732ZM227.154 37.432C225.354 37.432 223.722 37 222.258 36.136C220.818 35.248 219.678 34.036 218.838 32.5C217.998 30.964 217.578 29.224 217.578 27.28C217.578 25.336 217.986 23.62 218.802 22.132C219.618 20.62 220.722 19.432 222.114 18.568C223.53 17.704 225.114 17.272 226.866 17.272C228.258 17.272 229.494 17.536 230.574 18.064C231.678 18.568 232.614 19.264 233.382 20.152C234.15 21.016 234.738 22 235.146 23.104C235.554 24.184 235.758 25.3 235.758 26.452C235.758 26.692 235.746 26.968 235.722 27.28C235.698 27.568 235.662 27.868 235.614 28.18H219.306V25.66H234.066L232.77 26.74C232.986 25.42 232.83 24.244 232.302 23.212C231.798 22.156 231.066 21.328 230.106 20.728C229.146 20.104 228.066 19.792 226.866 19.792C225.666 19.792 224.55 20.104 223.518 20.728C222.51 21.352 221.718 22.228 221.142 23.356C220.566 24.46 220.338 25.78 220.458 27.316C220.338 28.852 220.578 30.196 221.178 31.348C221.802 32.476 222.642 33.352 223.698 33.976C224.778 34.6 225.93 34.912 227.154 34.912C228.57 34.912 229.758 34.576 230.718 33.904C231.678 33.232 232.458 32.392 233.058 31.384L235.362 32.608C234.978 33.472 234.39 34.276 233.598 35.02C232.806 35.74 231.858 36.328 230.754 36.784C229.674 37.216 228.474 37.432 227.154 37.432Z" fill="white"/>
</svg>
